<svg xmlns="http://www.w3.org/2000/svg" width="256" height="256" viewBox="0 0 100 100"><rect width="100" height="100" rx="20" fill="#08c1d3"></rect><path fill="#ffffff" d="M82.26 82.12L56.06 82.12L56.06 78.34L57.25 78.34Q58.79 78.34 60.13 78.13Q61.47 77.91 62.46 77.22Q63.45 76.54 64.04 75.27Q64.63 73.99 64.63 71.88L64.63 71.88L64.63 50.79L35.37 50.79L35.37 71.88Q35.37 73.99 35.96 75.27Q36.55 76.54 37.54 77.22Q38.53 77.91 39.89 78.13Q41.25 78.34 42.75 78.34L42.75 78.34L43.94 78.34L43.94 82.12L17.74 82.12L17.74 78.34L18.89 78.34Q20.42 78.34 21.77 78.13Q23.11 77.91 24.12 77.22Q25.13 76.54 25.70 75.27Q26.27 73.99 26.27 71.88L26.27 71.88L26.27 27.76Q26.27 25.79 25.68 24.58Q25.08 23.37 24.07 22.71Q23.06 22.05 21.72 21.85Q20.38 21.66 18.89 21.66L18.89 21.66L17.74 21.66L17.74 17.88L43.94 17.88L43.94 21.66L42.75 21.66Q41.25 21.66 39.89 21.88Q38.53 22.09 37.54 22.78Q36.55 23.46 35.96 24.73Q35.37 26.01 35.37 28.12L35.37 28.12L35.37 46.31L64.63 46.31L64.63 28.12Q64.63 26.01 64.04 24.73Q63.45 23.46 62.46 22.78Q61.47 22.09 60.13 21.88Q58.79 21.66 57.25 21.66L57.25 21.66L56.06 21.66L56.06 17.88L82.26 17.88L82.26 21.66L81.11 21.66Q79.58 21.66 78.23 21.88Q76.89 22.09 75.88 22.78Q74.87 23.46 74.30 24.73Q73.73 26.01 73.73 28.12L73.73 28.12L73.73 72.32Q73.73 74.30 74.32 75.51Q74.92 76.72 75.93 77.33Q76.94 77.95 78.28 78.15Q79.62 78.34 81.11 78.34L81.11 78.34L82.26 78.34L82.26 82.12Z"></path></svg>